<?xml version="1.0" encoding="utf-8"?>
<!-- Generator: Adobe Illustrator 23.0.1, SVG Export Plug-In . SVG Version: 6.00 Build 0)  -->
<svg version="1.1" id="Laag_1" xmlns="http://www.w3.org/2000/svg" xmlns:xlink="http://www.w3.org/1999/xlink" x="0px" y="0px"
	 viewBox="0 0 1391.99 1441.01" style="enable-background:new 0 0 1391.99 1441.01;" xml:space="preserve">
<style type="text/css">
	.st0{fill:url(#SVGID_1_);}
	.st1{clip-path:url(#SVGID_3_);}
	.st2{fill:#FF8939;}
	.st3{opacity:0.25;fill:#F9854C;}
	.st4{opacity:0.5;fill:#FF7D39;}
	.st5{opacity:0.75;fill:#FF7339;}
	.st6{fill:#FF5F27;}
	.st7{fill:#FF8C4D;}
	.st8{fill:#FF6543;}
	.st9{fill:#E53D3A;}
	.st10{fill:#CF1F34;}
	.st11{fill:#2B112C;}
</style>
<linearGradient id="SVGID_1_" gradientUnits="userSpaceOnUse" x1="-25.3775" y1="882.1868" x2="1419.7999" y2="47.8132">
	<stop  offset="0" style="stop-color:#2B112C"/>
	<stop  offset="0.5279" style="stop-color:#D12134"/>
	<stop  offset="1" style="stop-color:#FF5F27"/>
</linearGradient>
<rect x="1.01" y="2.11" class="st0" width="1392.41" height="925.77"/>
<g>
	<defs>
		<rect id="SVGID_2_" x="1.01" y="2.11" width="1392.41" height="925.77"/>
	</defs>
	<clipPath id="SVGID_3_">
		<use xlink:href="#SVGID_2_"  style="overflow:visible;"/>
	</clipPath>
	<g class="st1">
		<circle class="st2" cx="1345.99" cy="388.39" r="143.49"/>
		<circle class="st3" cx="1344.95" cy="386.78" r="173.58"/>
		<circle class="st4" cx="1344.95" cy="386.78" r="157.38"/>
		<circle class="st5" cx="1344.95" cy="386.78" r="122.66"/>
		<circle class="st6" cx="1344.95" cy="386.78" r="104.15"/>
	</g>
</g>
<polygon class="st7" points="156.37,528.81 197.09,493.73 234.59,524.68 353.53,419.45 400.67,460.72 413.53,446.28 491.75,516.43 
	698.55,601.03 869.99,464.85 918.21,506.11 965.35,466.91 976.07,477.23 1039.29,419.45 1175.37,535 1221.44,491.67 1237.51,506.11 
	1267.51,477.23 1279.3,493.73 1279.3,1447 136.02,1447 "/>
<polygon class="st8" points="365.32,596.9 416.75,551.51 432.82,570.08 574.26,446.28 590.33,466.91 706.05,363.74 912.85,547.38 
	931.07,532.94 979.28,572.14 1037.14,522.62 1053.22,547.38 1053.22,1444.94 362.1,1444.94 "/>
<path class="st9" d="M-0.06,595.68L113.51,461.1L259.24,573.5l53.57-50.28l126.44,82.82l18.22-13.31l56.79,41.41l61.08-39.93
	L745.7,697.72l97.51-116.83l71.79,53.24l158.58-128.66l80.36,88.73l240.02-212.96V1168H1.01C1.01,1168-1.88,593.18-0.06,595.68z"/>
<polygon class="st10" points="-2.21,880.65 215.31,736.8 295.67,845.56 328.88,810.48 395.32,880.65 508.9,763.12 640.69,924.5 
	743.55,805.22 863.56,947.31 909.64,917.48 943.92,950.81 1141.08,714 1205.37,799.95 1258.94,742.07 1312.52,815.74 
	1394.24,742.65 1394.24,1449 1.01,1449 "/>
<polygon class="st11" points="1.47,1362.06 206.73,1115.71 321.38,1264.81 706.05,1020.98 1093.93,1275.34 1233.23,1068.34 
	1397.79,1258.15 1397.79,1449 1.01,1449 "/>
</svg>
