<?xml version="1.0" encoding="utf-8"?>
<!-- Generator: Adobe Illustrator 23.0.1, SVG Export Plug-In . SVG Version: 6.00 Build 0)  -->
<svg version="1.1" id="Laag_1" xmlns="http://www.w3.org/2000/svg" xmlns:xlink="http://www.w3.org/1999/xlink" x="0px" y="0px"
	 viewBox="0 0 1017.99 677.01" style="enable-background:new 0 0 1017.99 677.01;" xml:space="preserve">
<style type="text/css">
	.st0{fill:#F4CCB3;}
	.st1{fill:#FF8C4D;}
	.st2{fill:#FF8939;}
	.st3{opacity:0.25;fill:#F9854C;}
	.st4{opacity:0.5;fill:#FF7D39;}
	.st5{opacity:0.75;fill:#FF7339;}
	.st6{fill:#FF5F27;}
	.st7{fill:#FF6543;}
	.st8{fill:#E53D3A;}
	.st9{fill:#CF1F34;}
	.st10{fill:#2B112C;}
</style>
<g>
	<rect x="0.14" y="0.43" class="st0" width="1018.45" height="677.14"/>
	<polygon class="st1" points="113.78,327.64 143.56,314.31 171,326.07 257.99,286.1 292.47,301.77 301.88,296.29 359.09,322.93 
		510.35,355.07 635.74,303.34 671.01,319.02 705.49,304.12 713.33,308.04 759.57,286.1 859.1,329.99 892.8,313.53 904.56,319.02 
		926.5,308.04 935.12,314.31 935.12,676.39 98.89,676.39 	"/>
	<g>
		<circle class="st2" cx="514.47" cy="183.82" r="104.96"/>
		<g>
			<circle class="st3" cx="514.47" cy="183.82" r="126.96"/>
			<circle class="st4" cx="514.47" cy="183.82" r="115.11"/>
			<circle class="st5" cx="514.47" cy="183.82" r="89.72"/>
			<circle class="st6" cx="514.47" cy="183.82" r="76.18"/>
			<path d="M645.04,161.49c0,0-15.28,5.35-17.81,8.48s-4.63,2.03-4.63,2.03s-2.53,3.13-4.3,3.09c-1.76-0.03-3.49-1.83-9.96,3.69
				c-6.46,5.52-8.59,6.19-8.59,6.19s15.35-8.88,22.34-5.21l-1.83,3.49c0,0,6.97,4.55,11.19-3.49l-2.96-2
				C628.49,177.75,628.29,169.63,645.04,161.49z"/>
			<path d="M610.39,164.49c0,0-10.57,2.96-12.42,4.97c-1.85,2.01-3.22,1.17-3.22,1.17s-1.85,2.01-3.04,1.91
				c-1.19-0.1-2.29-1.39-6.89,2.07c-4.61,3.46-6.08,3.82-6.08,3.82s10.77-5.35,15.34-2.57l-1.39,2.29c0,0,4.52,3.38,7.72-1.88
				l-1.92-1.48C598.49,174.78,598.71,169.28,610.39,164.49z"/>
			<path d="M619.45,151.02c0,0-7.94,2.23-9.33,3.73s-2.42,0.88-2.42,0.88s-1.39,1.51-2.28,1.43c-0.9-0.07-1.72-1.04-5.18,1.55
				s-4.57,2.87-4.57,2.87s8.09-4.02,11.52-1.93l-1.04,1.72c0,0,3.4,2.54,5.8-1.41l-1.44-1.11
				C610.51,158.76,610.67,154.62,619.45,151.02z"/>
			<path d="M600.83,149.33c0,0-5.98,1.68-7.02,2.81c-1.04,1.13-1.82,0.66-1.82,0.66s-1.04,1.13-1.72,1.08
				c-0.67-0.06-1.29-0.79-3.9,1.17c-2.61,1.96-3.44,2.16-3.44,2.16s6.09-3.02,8.67-1.45l-0.79,1.29c0,0,2.56,1.91,4.36-1.06
				l-1.08-0.84C594.1,155.15,594.22,152.04,600.83,149.33z"/>
		</g>
	</g>
	<polygon class="st7" points="266.61,353.5 304.23,336.26 315.98,343.31 419.44,296.29 431.19,304.12 515.83,264.94 667.09,334.69 
		680.41,329.2 715.68,344.09 758,325.28 769.76,334.69 769.76,675.61 264.26,675.61 	"/>
	<path class="st8" d="M-0.64,373.09l83.07-71.32l106.59,59.56l39.19-26.65l92.48,43.89l13.32-7.05l41.54,21.94l44.67-21.16
		l124.61,54.86l71.32-61.91l52.51,28.21l115.99-68.18l58.78,47.02l175.55-112.86v416.94H0.14C0.14,676.39-1.97,371.77-0.64,373.09z"
		/>
	<polygon class="st9" points="-2.21,422.47 156.89,358.2 215.67,406.79 239.96,391.12 288.55,422.47 371.63,369.96 468.03,442.06 
		543.26,388.77 631.04,452.25 664.74,438.92 689.82,453.82 834.02,348.01 881.05,386.42 920.23,360.55 959.42,393.47 
		1019.19,360.81 1019.19,676.39 0.14,676.39 	"/>
	<polygon class="st10" points="0.49,637.55 150.62,527.49 234.48,594.1 515.83,485.16 799.54,598.8 901.42,506.32 1021.79,591.13 
		1021.79,676.39 0.14,676.39 	"/>
</g>
</svg>
