<?xml version="1.0" encoding="utf-8"?>
<!-- Generator: Adobe Illustrator 23.0.1, SVG Export Plug-In . SVG Version: 6.00 Build 0)  -->
<svg version="1.1" id="Laag_1" xmlns="http://www.w3.org/2000/svg" xmlns:xlink="http://www.w3.org/1999/xlink" x="0px" y="0px"
	 viewBox="0 0 1391.99 1441.01" style="enable-background:new 0 0 1391.99 1441.01;" xml:space="preserve">
<style type="text/css">
	.st0{fill:#F4CCB3;}
	.st1{fill:#FF8C4D;}
	.st2{fill:#FF8939;}
	.st3{opacity:0.25;fill:#F9854C;}
	.st4{opacity:0.5;fill:#FF7D39;}
	.st5{opacity:0.75;fill:#FF7339;}
	.st6{fill:#FF5F27;}
	.st7{fill:#FF6543;}
	.st8{fill:#E53D3A;}
	.st9{fill:#CF1F34;}
	.st10{fill:#2B112C;}
</style>
<rect x="2.01" y="2.11" class="st0" width="1392.41" height="925.77"/>
<polygon class="st1" points="157.37,528.81 198.09,493.73 235.59,524.68 354.53,419.45 401.67,460.72 414.53,446.28 492.75,516.43 
	699.55,601.03 870.99,464.85 919.21,506.11 966.35,466.91 977.07,477.23 1040.29,419.45 1176.37,535 1222.44,491.67 1238.51,506.11 
	1268.51,477.23 1280.3,493.73 1280.3,1447 137.02,1447 "/>
<g>
	<circle class="st2" cx="705.19" cy="252.84" r="143.49"/>
	<g>
		<circle class="st3" cx="705.19" cy="252.84" r="173.58"/>
		<circle class="st4" cx="705.19" cy="252.84" r="157.38"/>
		<circle class="st5" cx="705.19" cy="252.84" r="122.66"/>
		<circle class="st6" cx="705.19" cy="252.84" r="104.15"/>
		<path d="M883.7,222.31c0,0-20.89,7.31-24.36,11.59c-3.46,4.28-6.33,2.77-6.33,2.77s-3.46,4.28-5.87,4.23
			c-2.41-0.05-4.78-2.51-13.61,5.04c-8.83,7.55-11.75,8.46-11.75,8.46s20.99-12.14,30.54-7.12l-2.51,4.78c0,0,9.53,6.22,15.29-4.77
			l-4.05-2.73C861.07,244.54,860.8,233.44,883.7,222.31z"/>
		<path d="M836.33,226.41c0,0-14.45,4.05-16.98,6.79s-4.4,1.6-4.4,1.6s-2.53,2.74-4.16,2.61c-1.63-0.14-3.12-1.9-9.43,2.83
			c-6.3,4.73-8.31,5.22-8.31,5.22s14.72-7.31,20.97-3.51l-1.9,3.12c0,0,6.18,4.62,10.55-2.57l-2.62-2.02
			C820.06,240.48,820.36,232.95,836.33,226.41z"/>
		<path d="M848.71,208c0,0-10.86,3.04-12.76,5.1c-1.9,2.06-3.31,1.2-3.31,1.2s-1.9,2.06-3.12,1.96c-1.22-0.1-2.35-1.43-7.08,2.12
			c-4.73,3.55-6.24,3.92-6.24,3.92s11.06-5.49,15.76-2.64l-1.43,2.35c0,0,4.64,3.47,7.93-1.93l-1.97-1.52
			C836.49,218.57,836.71,212.92,848.71,208z"/>
		<path d="M823.26,205.68c0,0-8.17,2.29-9.6,3.84s-2.49,0.91-2.49,0.91s-1.43,1.55-2.35,1.48c-0.92-0.08-1.77-1.08-5.33,1.6
			s-4.7,2.95-4.7,2.95s8.33-4.13,11.86-1.98l-1.08,1.77c0,0,3.5,2.61,5.97-1.45l-1.48-1.14
			C814.06,213.64,814.22,209.39,823.26,205.68z"/>
	</g>
</g>
<polygon class="st7" points="366.32,596.9 417.75,551.51 433.82,570.08 575.26,446.28 591.33,466.91 707.05,363.74 913.85,547.38 
	932.07,532.94 980.28,572.14 1038.14,522.62 1054.22,547.38 1054.22,1444.94 363.1,1444.94 "/>
<path class="st8" d="M0.94,595.68L114.51,461.1L260.24,573.5l53.57-50.28l126.44,82.82l18.22-13.31l56.79,41.41l61.08-39.93
	L746.7,697.72l97.51-116.83l71.79,53.24l158.58-128.66l80.36,88.73l240.02-212.96V1168H2.01C2.01,1168-0.88,593.18,0.94,595.68z"/>
<polygon class="st9" points="-1.21,880.65 216.31,736.8 296.67,845.56 329.88,810.48 396.32,880.65 509.9,763.12 641.69,924.5 
	744.55,805.22 864.56,947.31 910.64,917.48 944.92,950.81 1142.08,714 1206.37,799.95 1259.94,742.07 1313.52,815.74 
	1395.24,742.65 1395.24,1449 2.01,1449 "/>
<polygon class="st10" points="2.47,1362.06 207.73,1115.71 322.38,1264.81 707.05,1020.98 1094.93,1275.34 1234.23,1068.34 
	1398.79,1258.15 1398.79,1449 2.01,1449 "/>
</svg>
