<?xml version="1.0" encoding="utf-8"?>
<!-- Generator: Adobe Illustrator 23.0.1, SVG Export Plug-In . SVG Version: 6.00 Build 0)  -->
<svg version="1.1" id="Laag_1" xmlns="http://www.w3.org/2000/svg" xmlns:xlink="http://www.w3.org/1999/xlink" x="0px" y="0px"
	 viewBox="0 0 1395.99 924.01" style="enable-background:new 0 0 1395.99 924.01;" xml:space="preserve">
<style type="text/css">
	.st0{fill:#F4CCB3;}
	.st1{fill:#FF8C4D;}
	.st2{fill:#FF8939;}
	.st3{opacity:0.25;fill:#F9854C;}
	.st4{opacity:0.5;fill:#FF7D39;}
	.st5{opacity:0.75;fill:#FF7339;}
	.st6{fill:#FF5F27;}
	.st7{fill:#FF6543;}
	.st8{fill:#E53D3A;}
	.st9{fill:#CF1F34;}
	.st10{fill:#2B112C;}
</style>
<g>
	<rect x="3.01" y="2.11" class="st0" width="1392.41" height="925.77"/>
	<polygon class="st1" points="158.37,449.46 199.09,431.25 236.59,447.32 355.53,392.67 402.67,414.1 415.53,406.6 493.75,443.03 
		700.55,486.97 871.99,416.25 920.21,437.68 967.35,417.32 978.07,422.68 1041.29,392.67 1177.37,452.68 1223.44,430.18 
		1239.51,437.68 1269.51,422.68 1281.3,431.25 1281.3,926.28 138.02,926.28 	"/>
	<g>
		<circle class="st2" cx="706.19" cy="252.84" r="143.49"/>
		<g>
			<circle class="st3" cx="706.19" cy="252.84" r="173.58"/>
			<circle class="st4" cx="706.19" cy="252.84" r="157.38"/>
			<circle class="st5" cx="706.19" cy="252.84" r="122.66"/>
			<circle class="st6" cx="706.19" cy="252.84" r="104.15"/>
			<path d="M884.7,222.31c0,0-20.89,7.31-24.36,11.59c-3.46,4.28-6.33,2.77-6.33,2.77s-3.46,4.28-5.87,4.23
				c-2.41-0.05-4.78-2.51-13.61,5.04c-8.83,7.55-11.75,8.46-11.75,8.46s20.99-12.14,30.54-7.12l-2.51,4.78c0,0,9.53,6.22,15.29-4.77
				l-4.05-2.73C862.07,244.54,861.8,233.44,884.7,222.31z"/>
			<path d="M837.33,226.41c0,0-14.45,4.05-16.98,6.79s-4.4,1.6-4.4,1.6s-2.53,2.74-4.16,2.61c-1.63-0.14-3.12-1.9-9.43,2.83
				c-6.3,4.73-8.31,5.22-8.31,5.22s14.72-7.31,20.97-3.51l-1.9,3.12c0,0,6.18,4.62,10.55-2.57l-2.62-2.02
				C821.06,240.48,821.36,232.95,837.33,226.41z"/>
			<path d="M849.71,208c0,0-10.86,3.04-12.76,5.1c-1.9,2.06-3.31,1.2-3.31,1.2s-1.9,2.06-3.12,1.96c-1.22-0.1-2.35-1.43-7.08,2.12
				c-4.73,3.55-6.24,3.92-6.24,3.92s11.06-5.49,15.76-2.64l-1.43,2.35c0,0,4.64,3.47,7.93-1.93l-1.97-1.52
				C837.49,218.57,837.71,212.92,849.71,208z"/>
			<path d="M824.26,205.68c0,0-8.17,2.29-9.6,3.84s-2.49,0.91-2.49,0.91s-1.43,1.55-2.35,1.48c-0.92-0.08-1.77-1.08-5.33,1.6
				s-4.7,2.95-4.7,2.95s8.33-4.13,11.86-1.98l-1.08,1.77c0,0,3.5,2.61,5.97-1.45l-1.48-1.14
				C815.06,213.64,815.22,209.39,824.26,205.68z"/>
		</g>
	</g>
	<polygon class="st7" points="367.32,484.82 418.75,461.25 434.82,470.89 576.26,406.6 592.33,417.32 708.05,363.74 914.85,459.11 
		933.07,451.61 981.28,471.96 1039.14,446.25 1055.22,459.11 1055.22,925.21 364.1,925.21 	"/>
	<path class="st8" d="M1.94,511.61l113.58-97.51l145.72,81.43l53.57-36.43l126.44,60l18.22-9.64l56.79,30l61.08-28.93l170.37,75
		l97.51-84.65l71.79,38.57l158.58-93.22l80.36,64.29l240.02-154.3v570.04H3.01C3.01,926.28,0.12,509.8,1.94,511.61z"/>
	<polygon class="st9" points="-0.21,579.11 217.31,491.25 297.67,557.68 330.88,536.25 397.32,579.11 510.9,507.32 642.69,605.9 
		745.55,533.04 865.56,619.83 911.64,601.62 945.92,621.97 1143.08,477.32 1207.37,529.83 1260.94,494.47 1314.52,539.47 
		1396.24,494.82 1396.24,926.28 3.01,926.28 	"/>
	<polygon class="st10" points="3.47,873.17 208.73,722.69 323.38,813.77 708.05,664.83 1095.93,820.2 1235.23,693.76 1399.79,809.7 
		1399.79,926.28 3.01,926.28 	"/>
</g>
</svg>
