<?xml version="1.0" encoding="utf-8"?>
<!-- Generator: Adobe Illustrator 23.0.1, SVG Export Plug-In . SVG Version: 6.00 Build 0)  -->
<svg version="1.1" id="Laag_1" xmlns="http://www.w3.org/2000/svg" xmlns:xlink="http://www.w3.org/1999/xlink" x="0px" y="0px"
	 viewBox="0 0 735.99 485.01" style="enable-background:new 0 0 735.99 485.01;" xml:space="preserve">
<style type="text/css">
	.st0{fill:#F4CCB3;}
	.st1{fill:#FF8C4D;}
	.st2{fill:#FF8939;}
	.st3{opacity:0.25;fill:#F9854C;}
	.st4{opacity:0.5;fill:#FF7D39;}
	.st5{opacity:0.75;fill:#FF7339;}
	.st6{fill:#FF5F27;}
	.st7{fill:#FF6543;}
	.st8{fill:#E53D3A;}
	.st9{fill:#CF1F34;}
	.st10{fill:#2B112C;}
</style>
<g>
	<rect x="0.49" y="-1.67" class="st0" width="735.99" height="489.34"/>
	<polygon class="st1" points="82.61,234.79 104.14,225.16 123.96,233.66 186.82,204.77 211.74,216.1 218.54,212.13 259.89,231.39 
		369.19,254.61 459.81,217.23 485.3,228.56 510.22,217.8 515.88,220.63 549.3,204.77 621.22,236.49 645.58,224.59 654.07,228.56 
		669.93,220.63 676.16,225.16 676.16,486.82 71.85,486.82 	"/>
	<g>
		<circle class="st2" cx="372.17" cy="130.86" r="75.85"/>
		<g>
			<circle class="st3" cx="372.17" cy="130.86" r="91.75"/>
			<circle class="st4" cx="372.17" cy="130.86" r="83.19"/>
			<circle class="st5" cx="372.17" cy="130.86" r="64.84"/>
			<circle class="st6" cx="372.17" cy="130.86" r="55.05"/>
			<path d="M466.53,114.72c0,0-11.04,3.87-12.87,6.12c-1.83,2.26-3.34,1.47-3.34,1.47s-1.83,2.26-3.1,2.23s-2.52-1.32-7.19,2.67
				s-6.21,4.47-6.21,4.47s11.09-6.41,16.14-3.77l-1.32,2.52c0,0,5.04,3.29,8.08-2.52l-2.14-1.44
				C454.57,126.47,454.43,120.6,466.53,114.72z"/>
			<path d="M441.49,116.89c0,0-7.64,2.14-8.97,3.59c-1.34,1.45-2.33,0.85-2.33,0.85s-1.34,1.45-2.2,1.38
				c-0.86-0.07-1.65-1-4.98,1.49c-3.33,2.5-4.39,2.76-4.39,2.76s7.78-3.86,11.08-1.85l-1,1.65c0,0,3.27,2.44,5.58-1.36l-1.39-1.07
				C432.89,124.32,433.05,120.35,441.49,116.89z"/>
			<path d="M448.04,107.16c0,0-5.74,1.61-6.74,2.7c-1,1.09-1.75,0.64-1.75,0.64s-1,1.09-1.65,1.04c-0.65-0.05-1.24-0.75-3.74,1.12
				s-3.3,2.07-3.3,2.07s5.85-2.9,8.33-1.39l-0.76,1.24c0,0,2.45,1.83,4.19-1.02l-1.04-0.8
				C441.58,112.75,441.69,109.76,448.04,107.16z"/>
			<path d="M434.58,105.93c0,0-4.32,1.21-5.07,2.03c-0.76,0.82-1.32,0.48-1.32,0.48s-0.76,0.82-1.24,0.78
				c-0.49-0.04-0.93-0.57-2.82,0.84c-1.88,1.41-2.48,1.56-2.48,1.56s4.4-2.18,6.27-1.05l-0.57,0.93c0,0,1.85,1.38,3.15-0.77
				l-0.78-0.6C429.72,110.14,429.81,107.89,434.58,105.93z"/>
		</g>
	</g>
	<polygon class="st7" points="193.05,253.48 220.24,241.02 228.74,246.11 303.5,212.13 311.99,217.8 373.16,189.48 482.47,239.89 
		492.09,235.92 517.58,246.68 548.16,233.09 556.66,239.89 556.66,486.25 191.36,486.25 	"/>
	<path class="st8" d="M-0.07,267.64l60.03-51.54l77.03,43.04l28.32-19.26l66.83,31.72l9.63-5.1l30.02,15.86l32.28-15.29l90.05,39.65
		l51.54-44.74l37.95,20.39l83.82-49.27l42.48,33.98l126.87-81.56v301.3H0.49C0.49,486.82-1.03,266.68-0.07,267.64z"/>
	<polygon class="st9" points="-1.21,303.32 113.76,256.88 156.24,291.99 173.8,280.66 208.91,303.32 268.95,265.37 338.61,317.48 
		392.98,278.96 456.41,324.84 480.77,315.21 498.89,325.97 603.1,249.51 637.08,277.26 665.4,258.57 693.72,282.36 736.91,258.76 
		736.91,486.82 0.49,486.82 	"/>
	<polygon class="st10" points="0.74,458.75 109.23,379.21 169.83,427.35 373.16,348.63 578.18,430.75 651.81,363.92 738.79,425.2 
		738.79,486.82 0.49,486.82 	"/>
</g>
</svg>
