<?xml version="1.0" encoding="utf-8"?>
<!-- Generator: Adobe Illustrator 23.0.1, SVG Export Plug-In . SVG Version: 6.00 Build 0)  -->
<svg version="1.1" id="Laag_1" xmlns="http://www.w3.org/2000/svg" xmlns:xlink="http://www.w3.org/1999/xlink" x="0px" y="0px"
	 viewBox="0 0 1395.99 924.01" style="enable-background:new 0 0 1395.99 924.01;" xml:space="preserve">
<style type="text/css">
	.st0{fill:url(#SVGID_1_);}
	.st1{clip-path:url(#SVGID_3_);}
	.st2{fill:#FF8939;}
	.st3{opacity:0.25;fill:#F9854C;}
	.st4{opacity:0.5;fill:#FF7D39;}
	.st5{opacity:0.75;fill:#FF7339;}
	.st6{fill:#FF5F27;}
	.st7{fill:#FF8C4D;}
	.st8{fill:#FF6543;}
	.st9{fill:#E53D3A;}
	.st10{fill:#CF1F34;}
	.st11{fill:#2B112C;}
</style>
<g>
	<linearGradient id="SVGID_1_" gradientUnits="userSpaceOnUse" x1="-25.3775" y1="881.1868" x2="1419.7999" y2="46.8132">
		<stop  offset="0" style="stop-color:#FF5F27"/>
		<stop  offset="0.5279" style="stop-color:#D12134"/>
		<stop  offset="1" style="stop-color:#2B112C"/>
	</linearGradient>
	<rect x="1.01" y="1.11" class="st0" width="1392.41" height="925.77"/>
	<g>
		<defs>
			<rect id="SVGID_2_" x="1.01" y="1.11" width="1392.41" height="925.77"/>
		</defs>
		<clipPath id="SVGID_3_">
			<use xlink:href="#SVGID_2_"  style="overflow:visible;"/>
		</clipPath>
		<g class="st1">
			<circle class="st2" cx="95.55" cy="454.9" r="143.49"/>
			<circle class="st3" cx="94.51" cy="453.29" r="173.58"/>
			<circle class="st4" cx="94.51" cy="453.29" r="157.38"/>
			<circle class="st5" cx="94.51" cy="453.29" r="122.66"/>
			<circle class="st6" cx="94.51" cy="453.29" r="104.15"/>
		</g>
	</g>
	<polygon class="st7" points="156.37,448.46 197.09,430.25 234.59,446.32 353.53,391.67 400.67,413.1 413.53,405.6 491.75,442.03 
		698.55,485.97 869.99,415.25 918.21,436.68 965.35,416.32 976.07,421.68 1039.29,391.67 1175.37,451.68 1221.44,429.18 
		1237.51,436.68 1267.51,421.68 1279.3,430.25 1279.3,925.28 136.02,925.28 	"/>
	<polygon class="st8" points="365.32,483.82 416.75,460.25 432.82,469.89 574.26,405.6 590.33,416.32 706.05,362.74 912.85,458.11 
		931.07,450.61 979.28,470.96 1037.14,445.25 1053.22,458.11 1053.22,924.21 362.1,924.21 	"/>
	<path class="st9" d="M-0.06,510.61l113.58-97.51l145.72,81.43l53.57-36.43l126.44,60l18.22-9.64l56.79,30l61.08-28.93l170.37,75
		l97.51-84.65l71.79,38.57l158.58-93.22l80.36,64.29l240.02-154.3v570.04H1.01C1.01,925.28-1.88,508.8-0.06,510.61z"/>
	<polygon class="st10" points="-2.21,578.11 215.31,490.25 295.67,556.68 328.88,535.25 395.32,578.11 508.9,506.32 640.69,604.9 
		743.55,532.04 863.56,618.83 909.64,600.62 943.92,620.97 1141.08,476.32 1205.37,528.83 1258.94,493.47 1312.52,538.47 
		1394.24,493.82 1394.24,925.28 1.01,925.28 	"/>
	<polygon class="st11" points="1.47,872.17 206.73,721.69 321.38,812.77 706.05,663.83 1093.93,819.2 1233.23,692.76 1397.79,808.7 
		1397.79,925.28 1.01,925.28 	"/>
</g>
</svg>
