<?xml version="1.0" encoding="utf-8"?>
<!-- Generator: Adobe Illustrator 23.0.1, SVG Export Plug-In . SVG Version: 6.00 Build 0)  -->
<svg version="1.1" id="Laag_1" xmlns="http://www.w3.org/2000/svg" xmlns:xlink="http://www.w3.org/1999/xlink" x="0px" y="0px"
	 viewBox="0 0 1391.99 1441.01" style="enable-background:new 0 0 1391.99 1441.01;" xml:space="preserve">
<style type="text/css">
	.st0{fill:url(#SVGID_1_);}
	.st1{clip-path:url(#SVGID_3_);}
	.st2{fill:#FF8939;}
	.st3{opacity:0.25;fill:#F9854C;}
	.st4{opacity:0.5;fill:#FF7D39;}
	.st5{opacity:0.75;fill:#FF7339;}
	.st6{fill:#FF5F27;}
	.st7{fill:#FF8C4D;}
	.st8{fill:#FF6543;}
	.st9{fill:#E53D3A;}
	.st10{fill:#CF1F34;}
	.st11{fill:#2B112C;}
</style>
<linearGradient id="SVGID_1_" gradientUnits="userSpaceOnUse" x1="-28.3775" y1="877.1868" x2="1416.7999" y2="42.8132">
	<stop  offset="0" style="stop-color:#FF5F27"/>
	<stop  offset="0.5279" style="stop-color:#D12134"/>
	<stop  offset="1" style="stop-color:#2B112C"/>
</linearGradient>
<rect x="-1.99" y="-2.89" class="st0" width="1392.41" height="925.77"/>
<g>
	<defs>
		<rect id="SVGID_2_" x="-1.99" y="-2.89" width="1392.41" height="925.77"/>
	</defs>
	<clipPath id="SVGID_3_">
		<use xlink:href="#SVGID_2_"  style="overflow:visible;"/>
	</clipPath>
	<g class="st1">
		<circle class="st2" cx="92.55" cy="450.9" r="143.49"/>
		<circle class="st3" cx="91.51" cy="449.29" r="173.58"/>
		<circle class="st4" cx="91.51" cy="449.29" r="157.38"/>
		<circle class="st5" cx="91.51" cy="449.29" r="122.66"/>
		<circle class="st6" cx="91.51" cy="449.29" r="104.15"/>
	</g>
</g>
<polygon class="st7" points="153.37,499.88 194.09,463.89 231.59,495.65 350.53,387.67 397.67,430.02 410.53,415.2 488.75,487.18 
	695.55,573.98 866.99,434.25 915.21,476.59 962.35,436.37 973.07,446.95 1036.29,387.67 1172.37,506.23 1218.44,461.77 
	1234.51,476.59 1264.51,446.95 1276.3,463.89 1276.3,1442 133.02,1442 "/>
<polygon class="st8" points="362.32,591.9 413.75,546.51 429.82,565.08 571.26,441.28 587.33,461.91 703.05,358.74 909.85,542.38 
	928.07,527.94 976.28,567.14 1034.14,517.62 1050.22,542.38 1050.22,1439.94 359.1,1439.94 "/>
<path class="st9" d="M-3.06,590.68L110.51,456.1L256.24,568.5l53.57-50.28l126.44,82.82l18.22-13.31l56.79,41.41l61.08-39.93
	L742.7,692.72l97.51-116.83l71.79,53.24l158.58-128.66l80.36,88.73l240.02-212.96V1163H-1.99C-1.99,1163-4.88,588.18-3.06,590.68z"
	/>
<polygon class="st10" points="-5.21,875.65 212.31,731.8 292.67,840.56 325.88,805.48 392.32,875.65 505.9,758.12 637.69,919.5 
	740.55,800.22 860.56,942.31 906.64,912.48 940.92,945.81 1138.08,709 1202.37,794.95 1255.94,737.07 1309.52,810.74 
	1391.24,737.65 1391.24,1444 -1.99,1444 "/>
<polygon class="st11" points="-1.53,1329.06 203.73,1003.38 318.38,1200.5 703.05,878.15 1090.93,1214.42 1230.23,940.77 
	1394.79,1191.69 1394.79,1444 -1.99,1444 "/>
</svg>
