<?xml version="1.0" encoding="utf-8"?>
<!-- Generator: Adobe Illustrator 23.0.1, SVG Export Plug-In . SVG Version: 6.00 Build 0)  -->
<svg version="1.1" xmlns="http://www.w3.org/2000/svg" xmlns:xlink="http://www.w3.org/1999/xlink" x="0px" y="0px"
	 viewBox="0 0 348.13 707.08" style="enable-background:new 0 0 348.13 707.08;" xml:space="preserve">
<style type="text/css">
	.st0{fill:#455AA5;}
	.st1{fill:#59ABDF;}
	.st2{fill:#6FC8E4;}
	.st3{fill:#C2C2C2;}
	.st4{fill:#727272;}
	.st5{opacity:0.5;fill:#010202;}
	.st6{clip-path:url(#SVGID_2_);}
	.st7{fill:#264698;}
</style>
<g id="Laag_1">
</g>
<g id="Laag_2">
</g>
<g id="Laag_3">
	<g>
		<g>
			<path class="st0" d="M193.38,21.21c0,0,45.22,84.88,50.62,114.44c0,0-27.14-11.7-105.49-4.42
				C138.51,131.23,158.79,71.55,193.38,21.21z"/>
			<g>
				<path class="st0" d="M299.95,552.62c0,0,9.15,0.84,8.48,0.14c-0.67-0.7,26.57-101.35,26.57-101.35s6.56-32.73-22.32-57.01
					c-28.88-24.28-41.27-35.98-41.27-35.98L254.5,455C254.5,455,301.32,469.46,299.95,552.62z"/>
				<path class="st0" d="M69.81,548.17c0,0-9.18,0.53-8.48-0.14c0.7-0.67-23.21-102.17-23.21-102.17s-5.48-32.93,24.19-56.24
					c29.66-23.32,42.44-34.6,42.44-34.6l13.72,97.09C118.46,452.1,71.18,465.01,69.81,548.17z"/>
			</g>
			<path class="st1" d="M181.84,695.96c0,0,59.19-138.03,53.89-164.66c-5.31-26.63-26.1-43.12-26.1-43.12l-49.51-0.82
				c0,0-25.83,28.41-27,44.16C131.35,555.31,153.92,613.14,181.84,695.96z"/>
			<path class="st2" d="M182.26,636.87c0,0,48.16-103.14,43.9-123.23c-4.26-20.09-15.01-18.85-15.01-18.85l-53.06-1.42
				c0,0-13.39,7.48-14.1,19.31C142.9,530.54,160.45,574.28,182.26,636.87z"/>
			<path class="st3" d="M138.51,131.23c0,0,73.03-9.51,105.49,4.42c0,0,65.3,166.66,1.22,347.79l-118.39-1.96
				C126.83,481.49,65.16,322.39,138.51,131.23z"/>
			<path class="st0" d="M145.5,493.7l80.15,1.32c0,0,9.3,0.43,13.06-11.82l-107.23-1.77C131.47,481.43,134.82,494.34,145.5,493.7z"
				/>
			<circle class="st4" cx="189.7" cy="203.29" r="26.31"/>
			<circle class="st5" cx="189.7" cy="203.29" r="20.89"/>
			<g>
				<g>
					<defs>
						
							<ellipse id="SVGID_1_" transform="matrix(0.7187 -0.6953 0.6953 0.7187 -87.4431 190.5489)" cx="191.77" cy="203.34" rx="18.67" ry="18.96"/>
					</defs>
					<clipPath id="SVGID_2_">
						<use xlink:href="#SVGID_1_"  style="overflow:visible;"/>
					</clipPath>
					<g class="st6">
						<g>
							<defs>
								<rect id="SVGID_3_" x="167.97" y="179.52" width="47.6" height="47.64"/>
							</defs>
							<clipPath id="SVGID_4_">
								<use xlink:href="#SVGID_3_"  style="overflow:visible;"/>
							</clipPath>
							<g style="clip-path:url(#SVGID_4_);">
								
									<image style="overflow:visible;" width="101" height="101" xlink:href="E6FD9AF3.jpg"  transform="matrix(0.48 0 0 0.48 167.4996 179.0502)">
								</image>
							</g>
						</g>
					</g>
				</g>
			</g>
			<path class="st7" d="M126.83,481.49c0,0-2.64-6.47-4.18-12.52l126.66,2.09c0,0-2.42,8.17-4.08,12.38L126.83,481.49z"/>
			<circle class="st4" cx="132.64" cy="468.86" r="3.29"/>
			<circle class="st4" cx="144.37" cy="469.05" r="3.29"/>
			<circle class="st4" cx="156.09" cy="469.25" r="3.29"/>
			<circle class="st4" cx="167.82" cy="469.44" r="3.29"/>
			<circle class="st4" cx="179.55" cy="469.63" r="3.29"/>
			<circle class="st4" cx="191.28" cy="469.83" r="3.29"/>
			<circle class="st4" cx="203" cy="470.02" r="3.29"/>
			<circle class="st4" cx="214.73" cy="470.22" r="3.29"/>
			<circle class="st4" cx="226.46" cy="470.41" r="3.29"/>
			<circle class="st4" cx="238.19" cy="470.6" r="3.29"/>
		</g>
		<g>
			<path class="st5" d="M193.31,21.59c0,0-142.27,259.86-36.19,472.44l-12.04-0.2c0,0-10.13,0.52-13.14-12.19l-5.13-0.15
				l-8.96-29.29c0,0-46.28,14.63-48.17,96.14l-8.21,0c0,0-24.9-96.98-23.97-106.02c0.93-9.03-2.53-28.91,24.43-52.57
				c24.81-21.77,41.22-33.43,41.22-33.43S82.52,197.96,193.31,21.59z"/>
			<path class="st0" d="M191.02,330.25L191.02,330.25c-3.86,0-6.99,3.43-6.98,7.66l0.18,171.33c0,0.03,0,0.05,0.01,0.08l5.32,33.63
				c0.08,0.48,0.7,0.5,0.8,0.03l7.65-33.66c0.01-0.04,0.01-0.07,0.01-0.11l-0.18-171.53C197.82,333.58,194.77,330.25,191.02,330.25z
				"/>
		</g>
	</g>
</g>
</svg>
